<svg class="header__logo2" viewBox="0 0 420 137" fill="none" xmlns="http://www.w3.org/2000/svg">

            <path fill-rule="evenodd" clip-rule="evenodd" d="M68.2682 136.545C105.974 136.545 136.536 105.974 136.536 68.2766C136.536 30.5709 105.965 0.00842285 68.2682 0.00842285C30.5625 0.00842285 1.70004e-06 30.5792 1.70004e-06 68.2766C-0.00832368 105.974 30.5625 136.545 68.2682 136.545ZM68.4263 80.5732C48.87 70.6493 36.3653 55.7469 31.2452 38.3635C35.641 32.5274 41.1857 27.657 47.6129 24.1687C46.1476 45.0904 56.7625 64.6301 73.5881 77.5511L73.3133 77.7009C71.8564 78.4752 69.8 79.5658 68.4263 80.5732ZM92.1454 59.5183C94.4099 48.6537 89.5978 35.4663 86.7505 31.0455C100.779 38.2886 120.385 58.794 111.235 77.2347C105.175 89.4564 93.8937 94.1019 87.3 96.816C85.9513 97.3738 84.794 97.8484 83.9282 98.2896C78.7914 100.895 68.7427 108.263 72.4725 119.628C61.7327 115.931 58.1112 106.99 61.6328 98.914C65.0379 91.0715 70.3328 87.1502 75.6278 83.229C82.4546 78.1671 89.3064 73.0887 92.1454 59.5183ZM61.7744 86.0929C46.2808 84.4278 32.6355 78.0672 22.695 68.3515C23.8023 72.8056 25.6505 77.1598 27.7568 81.2475C37.9305 86.2761 48.6452 88.3075 60.4922 87.4749C60.6837 87.3084 60.8669 87.0836 61.0584 86.8588C61.2832 86.5924 61.5163 86.3177 61.7744 86.0929ZM58.7439 89.6145C48.9533 91.621 39.6288 90.497 30.7373 86.5924C31.395 87.4499 31.9695 88.2325 32.5273 88.9818C33.5596 90.3888 34.5087 91.6876 35.7992 93.1778C43.4002 94.2185 50.6267 94.1186 57.4868 91.3296C57.6949 91.1048 58.0279 90.6302 58.311 90.214C58.4775 89.9725 58.6357 89.7477 58.7439 89.6145ZM39.8619 97.6652C40.5863 98.4228 41.3355 99.2054 42.4012 99.8798C46.6888 99.7216 51.8588 98.6559 55.0391 95.7087L55.8883 93.8855C50.8015 96.2082 44.4825 97.3488 38.8296 96.6245C39.1876 96.9492 39.5289 97.3072 39.8619 97.6652ZM24.1852 35.5495C24.1852 35.5495 24.1603 35.5495 24.1603 35.5745L24.1852 35.5495ZM66.2701 82.1883C65.629 82.6545 64.5717 83.4871 64.0888 83.9866C46.1809 80.9645 31.4034 72.1895 21.7459 59.7347C22.745 54.548 24.4933 49.6527 26.8827 45.1487C33.0268 61.2916 46.8969 74.5789 66.2701 82.1883Z" fill="#163e73"></path>
            <path d="M364.41 78.7915C363.378 78.7915 362.612 78.5334 361.963 78.1421C361.447 77.7508 361.189 77.1097 361.189 76.2023H362.729C362.729 76.5936 362.862 76.9765 363.112 77.2346C363.37 77.4927 363.753 77.6259 364.269 77.6259C364.785 77.6259 365.168 77.501 365.426 77.2346C365.684 76.9765 365.809 76.7184 365.942 76.2023H367.483C367.483 76.9765 367.224 77.6259 366.583 78.1421C366.209 78.5334 365.443 78.7915 364.41 78.7915ZM358.874 79.5657H361.189V88.3407L367.882 79.5657H370.072V91.9622H367.757V83.1873L361.064 91.9622H358.874V79.5657ZM344.338 79.5657H346.652V88.3407L353.346 79.5657H355.536V91.9622H353.221V83.1873L346.528 91.9622H344.338V79.5657ZM336.612 86.8005H334.298V91.9622H331.983V79.5657H334.298V84.7275H336.612L340.217 79.5657H342.665L338.419 85.5017L342.798 91.829H340.225L336.612 86.8005ZM325.031 92.2203C323.741 92.2203 322.717 91.9622 321.685 91.446C320.652 90.9299 319.886 90.1556 319.37 89.1233C318.854 88.2158 318.471 87.0586 318.471 85.893C318.471 84.7275 318.729 83.5702 319.37 82.6628C319.886 81.7553 320.785 80.981 321.685 80.34C322.717 79.8238 323.874 79.5657 325.031 79.5657C326.064 79.5657 326.963 79.6906 327.862 80.0819C328.636 80.4649 329.411 80.981 329.918 81.6304L328.378 83.0457C327.479 82.1466 326.447 81.6304 325.031 81.6304C324.132 81.6304 323.491 81.7553 322.717 82.1466C322.076 82.5295 321.56 83.0457 321.177 83.6951C320.794 84.3445 320.661 85.1187 320.661 85.893C320.661 86.6673 320.794 87.4415 321.177 88.0909C321.56 88.732 322.076 89.2481 322.717 89.6394C323.358 90.0224 324.132 90.1556 325.031 90.1556C326.322 90.1556 327.479 89.6394 328.378 88.732L329.918 90.1556C329.402 90.805 328.628 91.3212 327.729 91.7041C326.963 91.9622 326.064 92.2203 325.031 92.2203ZM314.35 85.51C315.124 85.7681 315.64 86.1594 316.148 86.6756C316.531 87.1918 316.789 87.8412 316.789 88.4822C316.789 89.2565 316.531 89.9058 316.015 90.422C315.499 90.9382 314.858 91.4544 314.084 91.7125C313.309 91.9706 312.41 92.1038 311.511 92.1038C310.737 92.1038 309.838 91.9706 309.063 91.7125C308.289 91.4544 307.515 91.1963 306.749 90.6801L307.523 88.9984C308.039 89.3897 308.68 89.6478 309.321 89.9058C309.962 90.1639 310.612 90.1639 311.253 90.1639C312.152 90.1639 312.926 90.0307 313.567 89.6478C314.208 89.2565 314.466 88.7403 314.466 88.0993C314.466 87.5831 314.208 87.1918 313.825 86.8088C313.442 86.5507 312.793 86.4258 312.027 86.4258H309.197V84.6192H311.902C312.543 84.6192 313.059 84.4943 313.442 84.2279C313.825 83.9698 314.084 83.5786 314.084 83.0624C314.084 82.5462 313.825 82.03 313.309 81.772C312.793 81.5139 312.152 81.2558 311.253 81.2558C310.737 81.2558 310.096 81.3807 309.579 81.5139C308.938 81.6471 308.422 81.9052 307.906 82.1632L307.132 80.3566C307.773 79.9653 308.422 79.7156 309.188 79.5824C309.962 79.4492 310.604 79.3243 311.378 79.3243C312.277 79.3243 313.176 79.4492 313.95 79.7156C314.725 79.9737 315.366 80.3566 315.749 80.8728C316.265 81.389 316.39 82.0384 316.39 82.6794C316.39 83.3288 316.256 83.845 315.873 84.2279C315.382 84.9939 314.866 85.252 314.35 85.51ZM301.612 87.3167L299.298 81.8968L296.983 87.3167H301.612ZM302.386 89.1233H296.209L295.052 91.9622H292.737L298.274 79.5657H300.588L306.124 91.9622H303.677L302.386 89.1233ZM286.56 86.8005H284.245V91.9622H281.931V79.5657H284.245V84.7275H286.56L290.165 79.5657H292.612L288.366 85.5017L292.737 91.829H290.165L286.56 86.8005ZM274.721 90.2888C276.394 90.2888 277.169 89.6394 277.169 88.4822C277.169 87.3167 276.394 86.6756 274.721 86.6756H271.249V90.2888H274.721ZM271.116 84.8607H274.205C274.979 84.8607 275.495 84.7275 275.878 84.4694C276.261 84.2113 276.519 83.6951 276.519 83.1789C276.519 82.6628 276.261 82.1466 275.878 81.8885C275.495 81.6304 274.979 81.3723 274.205 81.3723H271.116V84.8607ZM277.036 85.51C277.81 85.7681 278.451 86.0262 278.834 86.5424C279.217 87.0586 279.475 87.7079 279.475 88.4739C279.475 89.5062 279.092 90.4137 278.318 91.0548C277.543 91.7041 276.386 91.9622 274.846 91.9622H268.927V79.5657H274.463C275.878 79.5657 276.911 79.8238 277.677 80.34C278.451 80.8562 278.834 81.6304 278.834 82.6628C278.834 83.3122 278.709 83.8283 278.318 84.3445C278.06 84.9939 277.552 85.252 277.036 85.51ZM262.624 87.3167L260.31 81.8968L257.995 87.3167H262.624ZM263.39 89.1233H257.213L256.056 91.9622H253.741L259.278 79.5657H261.592L267.128 91.9622H264.681L263.39 89.1233ZM247.564 86.8005H245.249V91.9622H242.935V79.5657H245.249V84.7275H247.564L251.169 79.5657H253.616L249.37 85.5017L253.749 91.829H251.177L247.564 86.8005ZM235.467 86.1511H240.354V87.9577H235.467V86.1511ZM226.975 90.1556C227.749 90.1556 228.515 90.0224 229.165 89.6394C229.806 89.2481 230.322 88.732 230.705 88.0909C231.088 87.4415 231.221 86.6673 231.221 85.893C231.221 85.1187 231.096 84.3445 230.705 83.6951C230.322 83.0457 229.806 82.5295 229.165 82.1466C228.524 81.7553 227.749 81.6304 226.975 81.6304C226.201 81.6304 225.435 81.7553 224.785 82.1466C224.144 82.5295 223.628 83.0457 223.237 83.6951C222.854 84.3445 222.721 85.1187 222.721 85.893C222.721 86.6673 222.854 87.4415 223.237 88.0909C223.62 88.732 224.136 89.2481 224.785 89.6394C225.435 90.0224 226.209 90.1556 226.975 90.1556ZM226.975 92.2203C225.685 92.2203 224.527 91.9622 223.628 91.446C222.596 90.9299 221.83 90.1556 221.314 89.1233C220.798 88.0909 220.415 87.0586 220.415 85.893C220.415 84.7275 220.673 83.5702 221.314 82.6628C221.83 81.6304 222.729 80.981 223.628 80.34C224.661 79.8238 225.818 79.5657 226.975 79.5657C228.265 79.5657 229.423 79.8238 230.322 80.34C231.354 80.8562 232.12 81.6304 232.636 82.6628C233.152 83.5619 233.535 84.7275 233.535 85.893C233.535 87.0586 233.277 88.2158 232.636 89.1233C232.12 90.0224 231.221 90.805 230.322 91.446C229.423 91.9622 228.265 92.2203 226.975 92.2203ZM213.596 86.5424C214.628 86.5424 215.394 86.2843 215.911 85.893C216.427 85.5017 216.685 84.8607 216.685 84.0864C216.685 83.3122 216.427 82.6628 215.911 82.2798C215.394 81.8885 214.62 81.6304 213.596 81.6304H210.89V86.5341H213.596V86.5424ZM213.721 79.5657C214.753 79.5657 215.777 79.6906 216.552 80.0819C217.326 80.4649 217.967 80.981 218.35 81.6304C218.733 82.2798 218.991 83.0457 218.991 83.9532C218.991 84.8607 218.733 85.6349 218.35 86.276C217.967 86.9254 217.318 87.4415 216.552 87.8245C215.777 88.2158 214.878 88.3407 213.721 88.3407H210.89V91.9539H208.576V79.5574H213.721V79.5657ZM206.003 90.0224V91.9622H196.737V79.5657H205.745V81.5055H199.052V84.7358H204.971V86.6756H199.052V90.0307H206.003V90.0224ZM189.403 90.2888C191.076 90.2888 191.85 89.6394 191.85 88.4822C191.85 87.3167 191.076 86.6756 189.403 86.6756H185.931V90.2888H189.403ZM185.923 84.8607H189.011C189.786 84.8607 190.302 84.7275 190.685 84.4694C191.068 84.2113 191.326 83.6951 191.326 83.1789C191.326 82.6628 191.068 82.1466 190.685 81.8885C190.302 81.6304 189.786 81.3723 189.011 81.3723H185.923V84.8607ZM191.717 85.51C192.491 85.7681 193.132 86.0262 193.515 86.5424C193.898 87.0586 194.156 87.7079 194.156 88.4739C194.156 89.5062 193.773 90.4137 192.999 91.0548C192.225 91.7041 191.068 91.9622 189.527 91.9622H183.608V79.5657H189.144C190.56 79.5657 191.592 79.8238 192.358 80.34C193.132 80.8562 193.515 81.6304 193.515 82.6628C193.515 83.3122 193.39 83.8283 192.999 84.3445C192.874 84.9939 192.358 85.252 191.717 85.51ZM181.036 90.0224V91.9622H171.769V79.5657H180.777V81.5055H174.084V84.7358H180.136V86.6756H174.217V90.0307H181.036V90.0224ZM164.826 92.2203C163.536 92.2203 162.512 91.9622 161.479 91.446C160.447 90.9299 159.681 90.1556 159.165 89.1233C158.649 88.0909 158.266 87.0586 158.266 85.893C158.266 84.7275 158.524 83.5702 159.165 82.6628C159.681 81.7553 160.58 80.981 161.479 80.34C162.512 79.8238 163.669 79.5657 164.826 79.5657C165.858 79.5657 166.758 79.6906 167.657 80.0819C168.431 80.4649 169.205 80.981 169.713 81.6304L168.173 83.0457C167.274 82.1466 166.241 81.6304 164.826 81.6304C163.927 81.6304 163.278 81.7553 162.512 82.1466C161.871 82.5295 161.354 83.0457 160.971 83.6951C160.588 84.3445 160.455 85.1187 160.455 85.893C160.455 86.6673 160.588 87.4415 160.971 88.0909C161.354 88.732 161.871 89.2481 162.512 89.6394C163.153 90.0224 163.927 90.1556 164.826 90.1556C166.116 90.1556 167.274 89.6394 168.173 88.732L169.713 90.1556C169.197 90.805 168.423 91.3212 167.523 91.7041C166.749 91.9622 165.85 92.2203 164.826 92.2203Z" fill="#163e73"></path>
            <path d="M303.801 100.612C302.769 100.612 302.003 100.354 301.354 99.9629C300.838 99.5716 300.58 98.9305 300.58 98.0231H302.12C302.12 98.4144 302.245 98.7973 302.503 99.0554C302.761 99.3135 303.144 99.4467 303.66 99.4467C304.176 99.4467 304.559 99.3135 304.817 99.0554C305.075 98.7973 305.2 98.5392 305.2 98.0231H306.749C306.749 98.7973 306.491 99.4467 305.849 99.9629C305.733 100.354 304.959 100.612 303.801 100.612ZM298.398 101.387H300.713V110.161L307.406 101.387H309.596V113.783H307.281V105L300.588 113.783H298.398V101.387ZM292.604 101.387H294.918V113.783H292.604V101.387ZM285.785 111.968C286.684 111.968 287.326 111.71 287.842 111.319C288.358 110.927 288.616 110.286 288.616 109.512C288.616 107.964 287.717 107.314 285.785 107.314H282.821V111.96H285.785V111.968ZM286.301 105.641C287.85 105.641 288.874 106.024 289.773 106.673C290.547 107.314 290.93 108.355 290.93 109.645C290.93 111.069 290.547 112.101 289.64 112.742C288.741 113.517 287.584 113.775 285.91 113.775H280.507V101.378H282.821V105.508H286.293V105.641H286.301ZM277.035 101.387V113.783H274.721V108.488H268.285V113.783H265.971V101.387H268.285V106.548H274.721V101.387H277.035ZM258.761 111.968C259.66 111.968 260.301 111.71 260.817 111.319C261.334 110.927 261.592 110.286 261.592 109.512C261.592 107.964 260.693 107.314 258.761 107.314H255.797V111.96H258.761V111.968ZM259.144 105.641C260.684 105.641 261.717 106.024 262.616 106.673C263.39 107.314 263.773 108.355 263.773 109.645C263.773 111.069 263.39 112.101 262.483 112.742C261.583 113.517 260.426 113.775 258.753 113.775H253.474V101.378H255.789V105.508H259.136V105.641H259.144ZM250.011 101.387V113.783H247.697V103.318H242.81L242.676 106.415C242.676 108.097 242.418 109.512 242.294 110.678C242.035 111.71 241.652 112.617 241.261 113.134C240.745 113.65 240.104 114.041 239.205 114.041C238.947 114.041 238.431 114.041 237.914 113.916L238.039 111.976C238.172 111.976 238.422 112.11 238.555 112.11C239.33 112.11 239.846 111.718 240.096 110.819C240.354 109.912 240.612 108.621 240.612 106.815L240.737 101.653H250.003V101.387H250.011ZM233.152 109.129L230.838 103.709L228.523 109.129H233.152ZM233.793 110.936H227.616L226.459 113.775H224.144L229.681 101.378H231.995L237.531 113.775H235.084L233.793 110.936ZM218.741 108.23C219.773 108.23 220.539 107.972 221.055 107.581C221.572 107.198 221.83 106.548 221.83 105.774C221.83 105 221.572 104.35 221.055 103.967C220.539 103.576 219.765 103.318 218.741 103.318H216.035V108.222H218.741V108.23ZM218.866 101.387C219.898 101.387 220.922 101.511 221.697 101.903C222.471 102.294 223.112 102.81 223.495 103.451C223.878 104.092 224.136 104.875 224.136 105.774C224.136 106.681 223.878 107.456 223.495 108.097C223.112 108.738 222.462 109.262 221.697 109.645C220.922 110.037 220.023 110.161 218.866 110.161H216.035V113.775H213.721V101.378H218.866V101.387ZM211.273 111.843V113.783H202.007V101.387H211.015V103.326H204.321V106.557H210.241V108.496H204.321V111.852H211.273V111.843ZM190.818 105.516C190.818 107.064 190.693 108.488 190.435 109.52C190.177 110.553 189.919 111.327 189.536 111.843H195.838V103.318H190.951L190.818 105.516ZM199.826 111.843V116.364H197.769V113.783H188.245V116.364H186.056V111.843H186.572C187.346 111.843 187.862 111.194 188.245 110.161C188.503 108.996 188.761 107.447 188.761 105.383L188.886 101.511H197.894V111.968H199.826V111.843ZM185.023 111.843V113.783H175.757V101.387H184.765V103.326H178.071V106.557H183.991V108.496H178.071V111.852H185.023V111.843ZM160.447 107.581C160.447 108.613 160.83 109.52 161.604 110.037C162.378 110.553 163.402 110.944 164.817 111.069V103.843C161.862 104.225 160.447 105.383 160.447 107.581ZM166.882 111.194C168.297 111.061 169.33 110.678 170.104 110.161C170.878 109.512 171.136 108.738 171.136 107.581C171.136 106.548 170.753 105.641 169.979 105C169.205 104.359 168.181 104.092 166.766 103.967V111.194H166.882ZM173.318 107.581C173.318 109.262 172.802 110.553 171.644 111.452C170.487 112.359 168.939 112.876 166.882 113V114.291H164.693V113C162.636 112.876 160.963 112.359 159.93 111.452C158.773 110.544 158.257 109.254 158.257 107.581C158.257 105.899 158.773 104.608 159.93 103.709C161.088 102.802 162.636 102.286 164.693 102.161V100.87H166.749V102.161C168.805 102.294 170.479 102.81 171.511 103.709C172.802 104.608 173.318 105.899 173.318 107.581Z" fill="#163e73"></path>
            <path d="M297.366 125.147H293.378V135.604H291.064V125.147H286.943V123.207H297.366V125.147ZM285.91 133.664V135.604H276.644V123.207H285.652V125.147H278.959V128.377H284.878V130.317H278.959V133.672H285.91V133.664ZM274.721 125.147H270.6V135.604H268.285V125.147H264.164V123.207H274.588V125.147H274.721ZM251.293 123.207H253.608V131.982L260.301 123.207H262.491V135.604H260.177V126.829L253.483 135.604H251.293V123.207ZM244.217 135.729C242.926 135.729 241.902 135.471 240.87 134.954C239.838 134.438 239.063 133.664 238.556 132.632C238.039 131.724 237.656 130.567 237.656 129.401C237.656 128.236 237.914 127.079 238.556 126.171C239.072 125.264 239.971 124.489 240.87 123.848C241.894 123.332 243.06 123.074 244.217 123.074C245.249 123.074 246.148 123.207 247.047 123.59C247.822 123.982 248.588 124.498 249.104 125.139L247.564 126.562C246.664 125.655 245.632 125.139 244.217 125.139C243.318 125.139 242.668 125.264 241.902 125.655C241.261 126.046 240.745 126.563 240.362 127.204C239.979 127.853 239.846 128.627 239.846 129.401C239.846 130.176 239.971 130.95 240.362 131.599C240.745 132.249 241.261 132.765 241.902 133.148C242.552 133.531 243.318 133.664 244.217 133.664C245.499 133.664 246.664 133.148 247.564 132.24L249.104 133.664C248.588 134.313 247.822 134.83 246.914 135.213C246.148 135.604 245.249 135.729 244.217 135.729ZM230.838 130.051C231.87 130.051 232.636 129.793 233.152 129.401C233.669 129.01 233.927 128.369 233.927 127.595C233.927 126.821 233.669 126.171 233.152 125.788C232.636 125.397 231.862 125.139 230.838 125.139H228.132V130.043H230.838V130.051ZM230.963 123.207C231.995 123.207 233.019 123.332 233.793 123.724C234.568 124.115 235.209 124.631 235.6 125.272C235.983 125.921 236.241 126.696 236.241 127.595C236.241 128.502 235.983 129.277 235.6 129.918C235.209 130.567 234.568 131.083 233.793 131.466C233.019 131.857 232.12 131.982 230.963 131.982H228.132V135.596H225.818V123.199H230.963V123.207ZM223.245 133.664V135.604H213.979V123.207H222.987V125.147H216.293V128.377H222.213V130.317H216.293V133.672H223.245V133.664ZM206.644 133.789C208.318 133.789 209.092 133.14 209.092 131.982C209.092 130.817 208.318 130.176 206.644 130.176H203.173V133.789H206.644ZM203.173 128.502H206.261C207.036 128.502 207.543 128.369 207.935 128.111C208.318 127.853 208.576 127.337 208.576 126.821C208.576 126.304 208.443 125.788 207.935 125.53C207.543 125.272 207.036 125.139 206.261 125.139H203.173V128.502ZM208.959 129.143C209.733 129.401 210.374 129.66 210.765 130.176C211.148 130.692 211.406 131.341 211.406 132.116C211.406 133.148 211.024 134.055 210.249 134.696C209.475 135.346 208.318 135.604 206.778 135.604H200.983V123.207H206.519C207.935 123.207 208.967 123.465 209.733 123.982C210.507 124.498 210.89 125.272 210.89 126.304C210.89 126.954 210.765 127.47 210.374 127.986C209.991 128.502 209.608 128.885 208.959 129.143ZM186.439 123.207H188.753V131.982L195.447 123.207H197.636V135.604H195.322V126.829L188.628 135.604H186.439V123.207ZM182.967 123.207V135.604H180.652V130.309H174.217V135.604H171.903V123.207H174.217V128.369H180.652V123.207H182.967ZM170.354 123.207L164.951 133.148C164.435 134.055 163.918 134.696 163.277 135.088C162.636 135.479 161.862 135.737 161.088 135.737C160.447 135.737 159.931 135.604 159.281 135.354L159.797 133.548C160.314 133.681 160.697 133.806 160.955 133.806C161.729 133.806 162.245 133.414 162.761 132.64L163.019 132.382L158.132 123.091H160.58L164.185 130.317L167.915 123.091H170.362V123.207H170.354Z" fill="#163e73"></path>

            <path fill-rule="evenodd" clip-rule="evenodd" d="M184.224 63.1481C192.899 63.1481 201.574 58.8855 206.719 53.4573L200.983 43.3254C198.186 47.4381 192.749 51.8422 185.107 52.2835C172.91 53.0161 163.203 43.3254 163.203 31.5782C163.203 11.3142 188.928 3.53 200.542 19.24L206.128 9.25788C201.133 4.12112 193.191 0.00836182 184.665 0.00836182C166.733 0.00836182 152.321 13.662 152.321 31.5782C152.321 49.4861 166.433 63.1481 184.224 63.1481Z" fill="#163e73"></path>
            <path d="M253.042 61.383H265.68L247.156 29.0722L263.915 0H251.277L236.283 26.1417L225.401 25.9919L225.252 0H213.346V61.383H225.401V36.715L238.922 36.5651L253.042 61.383Z" fill="#163e73"></path>
            <path d="M274.496 30.9871C274.496 18.5073 281.989 11.7471 296.692 10.5732V51.4009C282.58 50.0772 274.496 43.4668 274.496 30.9871ZM307.723 51.4009V10.5732C322.126 11.7471 330.068 18.5073 330.068 30.8372C330.068 43.317 322.276 50.227 307.723 51.4009ZM341.382 30.9871C341.382 12.4797 329.186 1.47359 307.573 0.291382H296.55C274.937 1.46526 262.741 12.4797 262.741 30.9871C262.741 49.4861 274.937 60.359 296.55 61.5329H307.573C329.327 60.6504 341.382 49.4861 341.382 30.9871Z" fill="#163e73"></path>
            <path d="M386.031 0.291382C380.004 11.5973 374.859 21.7292 368.098 33.185L350.315 0.291382H338.11L361.921 44.1994C359.273 48.1623 356.335 52.1252 351.04 52.1252C349.866 52.1252 348.684 51.9753 347.51 51.684L352.946 61.5246C360.006 61.5246 366.175 58.8771 371.612 49.0448L398.369 0.291382H386.031Z" fill="#163e73"></path>


          </svg>