<svg width="32" height="32" viewBox="0 0 32 32" fill="none" xmlns="http://www.w3.org/2000/svg">
<rect width="32" height="32" rx="8" fill="#0077FF"/>
<path d="M16.0001 4.16663C9.47925 4.16663 4.16675 9.47913 4.16675 16C4.16675 22.5208 9.47925 27.8333 16.0001 27.8333C20.0001 27.8333 22.6667 25.7708 22.6667 25.7708L21.1042 23.9791C21.1042 23.9791 19.0209 25.4791 16.0001 25.4791C10.7709 25.4791 6.52091 21.2291 6.52091 16C6.52091 10.7708 10.7709 6.52079 16.0001 6.52079C21.2292 6.52079 25.4792 10.7708 25.4792 16C25.4792 18.7083 24.6042 19.6041 23.5417 19.6041C22.6459 19.6041 21.9584 18.9166 21.9584 17.9375V16C21.9584 12.7083 19.2917 10.0416 16.0001 10.0416C12.7084 10.0416 10.0417 12.7083 10.0417 16C10.0417 19.2916 12.7084 21.9583 16.0001 21.9583C17.6667 21.9583 19.1667 21.2708 20.2501 20.1666C20.9376 21.25 22.1459 21.9791 23.5417 21.9791C25.9376 21.9791 27.8334 20.0625 27.8334 16C27.8334 9.47913 22.5209 4.16663 16.0001 4.16663ZM12.3959 16C12.3959 14 14.0001 12.3958 16.0001 12.3958C17.9792 12.3958 19.6042 14 19.6042 16C19.6042 17.9791 17.9792 19.6041 16.0001 19.6041C14.0001 19.6041 12.3959 17.9791 12.3959 16Z" fill="white"/>
</svg>

